<?xml version="1.0" standalone="no"?>
<!DOCTYPE svg PUBLIC "-//W3C//DTD SVG 20010904//EN"
 "http://www.w3.org/TR/2001/REC-SVG-20010904/DTD/svg10.dtd">
<svg version="1.0" xmlns="http://www.w3.org/2000/svg"
 width="121.000000pt" height="130.000000pt" viewBox="0 0 121.000000 130.000000"
 preserveAspectRatio="xMidYMid meet">
<metadata>
Created by potrace 1.16, written by Peter Selinger 2001-2019
</metadata>
<g transform="translate(0.000000,130.000000) scale(0.100000,-0.100000)"
fill="#000000" stroke="none">
<path d="M651 785 c24 -82 20 -172 -9 -238 -16 -36 -124 -203 -136 -210 -2 -1
-40 29 -85 67 -86 73 -107 102 -121 169 l-8 42 -1 -43 c-1 -61 16 -94 102
-202 43 -52 77 -101 77 -109 0 -8 -6 -40 -14 -70 -8 -31 -17 -68 -20 -82 -5
-22 -14 -27 -78 -42 -135 -32 -115 -37 157 -36 l260 1 -94 24 c-51 13 -96 25
-98 28 -9 9 -3 138 8 181 23 86 41 102 193 175 96 45 147 75 159 93 24 37 21
55 -4 23 -14 -18 -42 -32 -92 -47 -40 -11 -89 -26 -109 -34 -20 -7 -39 -11
-41 -8 -3 2 2 25 10 51 28 92 1 238 -60 317 -12 16 -12 6 4 -50z"/>
</g>
</svg>
